<?xml version="1.0" standalone="no"?>
<!DOCTYPE svg PUBLIC "-//W3C//DTD SVG 20010904//EN"
 "http://www.w3.org/TR/2001/REC-SVG-20010904/DTD/svg10.dtd">
<svg version="1.0" xmlns="http://www.w3.org/2000/svg"
 width="5689.000000pt" height="786.000000pt" viewBox="0 0 5689.000000 786.000000"
 preserveAspectRatio="xMidYMid meet">
<g transform="translate(0.000000,786.000000) scale(0.100000,-0.100000)"
fill="#33313b" stroke="none">
<path d="M8610 7290 l0 -570 -290 0 -290 0 0 -900 0 -900 -275 0 -275 0 0
-1805 0 -1805 -165 0 -165 0 0 600 0 600 -120 0 -120 0 0 905 0 905 -370 0
-370 0 0 270 0 270 -775 0 -775 0 0 -270 0 -270 -200 0 -200 0 0 -905 0 -905
-205 0 -205 0 0 -834 c0 -546 -3 -837 -10 -841 -6 -3 -10 -23 -10 -44 0 -20
-4 -41 -9 -47 -6 -5 -35 -7 -66 -6 l-56 4 6 32 c5 23 1 38 -14 58 -12 14 -21
35 -21 46 0 24 -44 62 -71 62 -11 0 -29 10 -41 22 -18 18 -33 22 -83 21 -33
-1 -100 -2 -150 -2 -141 -1 -185 -33 -185 -137 0 -44 -4 -53 -30 -72 -36 -27
-41 -27 -73 -2 -25 20 -35 21 -153 14 l-126 -7 -129 129 -129 129 0 162 0 163
130 0 c72 0 130 4 130 8 0 4 -130 64 -290 132 -159 69 -290 127 -290 130 1 3
230 135 510 294 281 159 510 293 510 298 0 10 -247 280 -260 286 -4 1 -195
-168 -426 -377 -230 -209 -420 -379 -420 -378 -1 1 -145 229 -319 507 -174
278 -323 511 -329 518 -10 10 -46 -12 -187 -119 -96 -72 -176 -133 -179 -136
-2 -2 186 -194 418 -426 l423 -423 -511 -304 c-280 -168 -510 -307 -510 -310
0 -11 231 -265 243 -268 7 -1 103 74 214 168 111 93 204 170 207 170 3 0 6
-254 6 -565 l0 -565 500 0 500 0 0 49 c0 27 5 62 11 78 14 37 14 152 0 166 -6
6 -11 44 -11 86 l0 75 36 -42 c19 -23 41 -42 47 -42 14 0 89 -76 105 -107 8
-15 25 -23 60 -28 l48 -6 -8 -92 c-4 -51 -9 -102 -11 -115 -4 -20 -1 -22 45
-22 l49 0 -7 104 -7 103 39 -6 39 -6 3 -98 3 -97 34 0 35 0 0 90 c0 99 15 130
64 130 33 0 47 22 45 67 -2 21 0 44 4 50 4 6 0 16 -8 23 -19 16 -16 60 5 60 9
0 24 -16 33 -34 15 -32 20 -35 75 -42 l59 -6 -4 -52 c-5 -64 -22 -211 -29
-253 l-6 -33 67 0 67 0 -6 38 c-3 20 -8 89 -11 153 l-7 115 66 -4 c73 -5 96 6
96 43 0 12 7 28 15 35 8 7 15 23 15 35 0 16 11 30 35 44 33 19 40 33 36 73 -1
9 3 19 9 23 7 4 10 -5 8 -29 -2 -28 4 -39 24 -56 15 -11 30 -31 34 -43 9 -31
44 -67 66 -67 17 0 18 -12 18 -180 l0 -180 4093 0 4092 0 58 1003 c32 551 61
1032 64 1070 l6 67 -137 0 -136 0 0 305 0 305 -675 0 -675 0 0 -235 0 -235
-55 0 -55 0 0 2790 0 2790 -890 0 -890 0 0 -570z"/>
<path d="M35570 6165 l0 -115 -105 0 -105 0 0 -75 0 -75 105 0 105 0 0 -99 c0
-90 -2 -100 -20 -106 -10 -3 -31 -20 -45 -36 -45 -55 -28 -158 32 -190 21 -12
24 -18 17 -49 -4 -19 -8 -61 -10 -93 -4 -79 -10 -93 -44 -107 -36 -15 -87 -71
-106 -116 -19 -46 -17 -131 5 -179 10 -22 36 -56 58 -76 l39 -35 -52 -59 c-42
-47 -50 -61 -42 -75 15 -23 -25 -98 -58 -111 -31 -11 -144 -98 -144 -110 0 -5
11 -16 25 -25 19 -13 25 -24 23 -48 -1 -17 6 -42 14 -56 15 -22 18 -92 24
-566 l7 -540 -47 -30 c-31 -19 -57 -47 -76 -80 -25 -44 -35 -53 -72 -62 l-44
-11 -21 -80 -21 -80 24 -22 24 -22 0 -477 0 -476 -65 -64 c-36 -35 -65 -69
-65 -74 0 -6 11 -21 24 -35 l24 -26 4 -682 c3 -592 1 -683 -11 -683 -12 0 -12
3 -3 12 7 7 12 18 12 25 0 7 -57 61 -127 119 -1104 916 -2123 1201 -3157 883
-387 -120 -835 -365 -1230 -674 l-96 -75 0 676 0 676 36 64 36 64 -61 0 -61 0
0 195 0 195 -615 0 -615 0 0 -155 0 -155 -49 0 c-46 0 -54 4 -108 54 -89 83
-141 181 -177 335 l-14 59 44 56 c24 30 44 58 44 61 0 3 -148 5 -330 5 -240 0
-330 -3 -330 -11 0 -7 13 -34 30 -60 l29 -48 -45 -133 c-25 -73 -59 -155 -75
-183 -29 -50 -73 -105 -84 -105 -3 0 -5 131 -5 290 l0 290 -85 0 -85 0 0 -80
0 -80 -70 0 -70 0 0 54 c0 80 -42 124 -132 140 l-38 7 0 146 c0 144 0 147 30
200 l30 53 -64 0 c-61 0 -66 2 -93 34 -93 112 -205 114 -313 6 -38 -38 -43
-40 -105 -40 -36 0 -65 -3 -65 -7 0 -5 11 -28 25 -52 24 -41 25 -50 25 -212 0
-162 -1 -169 -20 -169 -11 0 -38 -16 -60 -36 -35 -32 -40 -42 -40 -80 l0 -44
-60 0 -60 0 0 34 c0 26 5 36 20 41 17 5 20 15 20 66 l0 59 -70 0 -70 0 0 -75
c0 -60 -3 -75 -15 -75 -13 0 -15 -29 -15 -205 0 -130 -4 -205 -10 -205 -5 0
-10 8 -10 18 0 9 -9 32 -20 49 -14 24 -31 35 -65 44 l-45 11 0 110 c0 100 2
113 26 154 l26 44 -52 0 c-47 0 -57 4 -95 39 -72 66 -144 65 -220 -4 -33 -31
-44 -35 -91 -35 -30 0 -54 -4 -54 -10 0 -5 9 -24 20 -42 17 -28 20 -50 20
-158 l0 -125 -33 -15 c-18 -8 -39 -29 -47 -47 -15 -32 -16 -33 -82 -33 -66 0
-68 1 -74 27 -9 40 -42 72 -86 85 l-38 11 0 113 c0 96 3 119 20 146 11 18 20
36 20 41 0 4 -22 7 -50 7 -45 0 -54 4 -89 39 -67 67 -139 67 -214 0 -41 -35
-50 -39 -101 -39 -31 0 -56 -2 -56 -5 0 -2 9 -19 20 -37 17 -29 20 -51 20
-163 l0 -130 -30 -17 c-17 -10 -38 -31 -48 -48 -20 -36 -42 -39 -42 -6 0 37
-37 75 -86 87 l-44 11 0 109 c0 99 2 113 25 149 14 22 25 42 25 45 0 3 -23 5
-51 5 -46 0 -56 4 -95 40 -72 66 -136 66 -209 -1 -39 -36 -47 -39 -99 -39 -31
0 -56 -3 -56 -7 0 -5 9 -23 20 -41 17 -28 20 -50 20 -161 l0 -129 -30 -12
c-32 -13 -56 -44 -63 -81 -2 -13 -5 76 -6 199 l-1 222 -190 0 -190 0 0 80 0
80 -70 0 -70 0 0 -90 0 -90 -110 0 -110 0 0 -130 0 -130 -60 0 -60 0 0 -34 0
-34 -37 9 c-21 5 -57 9 -80 9 l-43 0 0 113 0 113 41 39 40 40 -98 5 -98 5 3
35 c2 19 6 229 8 466 l5 432 -36 22 c-27 16 -35 28 -35 50 0 24 5 29 35 34 35
7 35 7 35 60 0 39 -6 60 -21 80 -21 26 -21 33 -18 397 l4 371 -27 22 -28 22 0
200 c0 158 3 210 16 248 9 26 15 48 13 50 -58 44 -80 56 -97 56 -30 0 -32 21
-6 56 34 44 39 84 19 128 -16 34 -75 84 -117 99 -15 5 -18 19 -18 74 0 37 -3
132 -7 211 l-6 142 -27 0 c-26 0 -27 -2 -33 -67 -4 -38 -7 -102 -7 -143 0 -41
-3 -106 -7 -143 -6 -67 -7 -69 -50 -99 -81 -55 -104 -128 -63 -196 26 -42 25
-62 -2 -62 -12 0 -39 -12 -61 -27 -33 -23 -38 -30 -31 -52 4 -14 9 -128 11
-253 l4 -227 -30 -22 c-27 -20 -31 -29 -31 -70 0 -26 5 -51 10 -54 6 -4 10
-121 10 -317 l0 -311 -25 -33 c-19 -25 -25 -45 -25 -83 l0 -51 40 -6 40 -7 0
-133 0 -134 -504 0 -505 0 -160 223 -161 222 0 103 0 102 46 0 c25 0 43 4 40
9 -6 9 -259 210 -283 225 -8 4 -63 -35 -152 -111 l-139 -118 37 -5 36 -5 3
-126 3 -127 -205 -353 -204 -354 -63 0 -64 0 -16 60 -16 60 -100 3 -101 3 -36
-65 -36 -64 0 -434 -1 -433 -422 -288 -422 -288 -3 50 -3 49 -67 -18 c-37 -10
-104 -28 -149 -40 l-83 -22 0 -287 0 -286 -552 -188 -551 -188 -22 21 c-15 14
-32 20 -55 18 -30 -3 -34 0 -42 32 -6 19 -15 42 -22 50 -9 10 -17 89 -25 247
-17 340 -44 532 -100 713 -20 64 -20 65 -1 85 18 19 18 23 4 43 -9 13 -17 55
-21 107 -6 79 -7 85 -28 85 -19 0 -23 -7 -29 -46 -3 -26 -6 -65 -6 -87 0 -24
-7 -48 -17 -59 -16 -18 -16 -20 4 -39 20 -21 20 -21 1 -82 -62 -199 -108 -568
-108 -862 0 -56 -5 -87 -15 -101 -8 -10 -20 -36 -26 -58 -10 -36 -12 -38 -41
-32 -24 5 -37 1 -54 -15 l-22 -21 -551 189 -551 188 0 286 0 286 -147 40 -148
39 -3 -48 c-2 -26 -5 -48 -8 -48 -3 0 -54 34 -114 76 l-110 76 0 1359 0 1359
-65 0 c-37 0 -65 4 -65 10 0 6 18 10 40 10 l40 0 0 45 0 45 -40 0 c-29 0 -40
4 -40 15 0 11 11 15 40 15 l40 0 0 45 0 45 -39 0 c-35 0 -39 3 -43 30 -4 28
-2 31 36 41 64 16 66 17 66 42 0 34 -6 36 -63 21 -75 -20 -1018 -20 -1094 0
l-51 14 -5 -27 c-7 -35 -4 -38 43 -46 38 -6 40 -9 40 -41 0 -32 -2 -34 -35
-34 -35 0 -35 0 -35 -45 0 -45 0 -45 35 -45 24 0 35 -5 35 -15 0 -10 -11 -15
-35 -15 -35 0 -35 0 -35 -45 0 -45 0 -45 35 -45 19 0 35 -4 35 -10 0 -6 -27
-10 -60 -10 l-60 0 0 -2270 0 -2270 8120 0 8120 0 0 73 c0 44 -6 83 -15 101
-8 15 -15 39 -15 52 0 28 3 29 310 49 1067 70 2294 62 3313 -21 l77 -7 0 -77
c0 -57 -4 -81 -15 -90 -8 -7 -15 -28 -15 -46 l0 -34 1915 0 1915 0 0 1205 0
1205 35 0 35 0 0 95 0 95 -215 0 -215 0 0 -95 0 -95 35 0 35 0 0 -160 0 -160
-625 0 -625 0 0 155 0 155 45 0 45 0 0 95 0 95 -215 0 -215 0 0 -95 0 -95 40
0 40 0 0 -164 c0 -148 -2 -165 -17 -170 -10 -3 -60 -16 -110 -30 l-93 -25 0
407 0 406 27 28 c24 25 25 31 15 65 -6 21 -16 57 -22 80 -10 39 -14 44 -55 54
-39 10 -48 18 -74 65 -21 36 -44 61 -76 79 l-45 27 7 541 c6 514 7 543 25 570
13 18 18 36 13 55 -5 23 -1 30 27 46 l32 19 -50 43 c-27 24 -68 53 -90 66 -30
15 -48 35 -64 67 -14 29 -18 47 -11 49 19 6 12 19 -39 78 l-50 57 33 22 c50
34 87 111 87 179 0 31 -7 73 -16 94 -18 45 -67 97 -105 112 -33 14 -40 31 -38
97 0 26 -2 68 -6 93 -7 42 -5 46 24 68 38 28 55 83 41 134 -11 37 -60 88 -86
88 -11 0 -14 20 -14 100 l0 100 105 0 105 0 0 75 0 75 -104 0 -103 0 -6 68
c-4 37 -7 88 -7 115 0 43 -2 47 -25 47 l-25 0 0 -115z m-2834 -4866 c60 -6
110 -12 112 -14 1 -1 15 -185 30 -409 l27 -406 -247 0 -248 0 0 420 0 420 108
0 c60 0 158 -5 218 -11z m-396 -413 l0 -413 -246 -8 c-135 -4 -247 -5 -249 -4
-3 4 75 772 80 777 3 4 243 50 285 55 19 2 56 5 83 5 l47 2 0 -414z m747 354
c66 -16 170 -45 231 -65 l110 -35 6 -38 c10 -66 68 -644 64 -646 -1 -1 -119 0
-260 2 l-257 4 -5 31 c-3 18 -14 178 -26 357 -11 179 -22 346 -25 373 -5 44
-4 47 17 47 13 0 78 -13 145 -30z m-1242 -62 c-3 -24 -21 -193 -40 -377 -19
-183 -36 -335 -38 -337 -6 -6 -447 -20 -447 -14 1 19 162 636 168 641 15 14
321 124 355 128 5 1 6 -18 2 -41z m1807 -134 c68 -31 180 -88 249 -126 l126
-69 32 -187 c18 -103 35 -198 38 -211 l6 -24 -124 6 c-68 4 -187 10 -265 13
l-140 7 -32 311 c-36 349 -35 336 -23 336 6 0 65 -25 133 -56z m-2331 -296
c-43 -166 -82 -303 -87 -304 -19 -6 -427 -24 -432 -20 -2 3 3 26 11 53 9 26
34 107 56 178 l41 130 97 60 c91 55 370 204 384 205 4 0 -28 -136 -70 -302z
m2918 -35 c102 -68 340 -243 411 -303 21 -18 22 -21 5 -16 -11 2 -124 10 -251
17 l-230 13 -28 160 c-15 89 -30 171 -33 184 -3 12 -2 22 3 22 4 0 59 -35 123
-77z m-3432 -16 c-3 -8 -22 -69 -43 -138 -20 -68 -42 -129 -48 -135 -7 -7 -68
-15 -148 -19 -166 -8 -171 -3 -70 79 102 82 296 225 306 226 4 0 6 -6 3 -13z"/>
<path d="M13010 4460 l0 -140 -125 0 -125 0 0 -835 0 -835 -225 0 -225 0 0
-1325 0 -1325 950 0 950 0 0 2160 0 2160 -60 0 -60 0 0 140 0 140 -540 0 -540
0 0 -140z"/>
<path d="M38762 3249 c-64 -19 -60 37 -82 -1199 -11 -619 -20 -1156 -20 -1193
l0 -69 -30 7 -30 7 0 -262 0 -261 -47 3 c-41 3 -48 6 -51 25 -2 12 -12 25 -23
28 -10 3 -28 8 -39 11 -18 5 -20 1 -20 -40 l0 -46 -40 0 -40 0 0 -70 0 -70
121 0 122 0 -6 -60 -7 -60 245 0 245 0 0 60 0 60 120 0 120 0 0 70 0 70 -45 0
-45 0 0 45 c0 25 -2 45 -4 45 -25 0 -67 -27 -72 -46 -5 -21 -12 -24 -55 -24
l-49 0 0 261 0 261 -24 -6 -24 -6 -6 223 c-3 122 -11 654 -17 1182 -6 592 -14
973 -20 993 -17 53 -104 83 -177 61z"/>
<path d="M51646 2793 c-3 -16 -8 -120 -12 -232 l-7 -204 -38 -61 c-27 -43 -35
-62 -26 -68 16 -10 -27 -178 -50 -195 -9 -7 -13 -20 -10 -32 5 -20 -12 -93
-24 -105 -3 -3 -18 33 -33 82 -22 67 -29 113 -33 202 -6 151 -8 160 -38 160
-25 0 -25 -2 -25 -79 0 -99 -5 -111 -41 -111 -29 0 -29 0 -29 64 0 96 -8 126
-35 126 -22 0 -22 -3 -28 -142 l-5 -143 -72 -205 c-42 -121 -67 -206 -61 -208
7 -2 11 -52 11 -138 l0 -134 -557 2 -558 3 -114 188 -114 187 -94 0 -93 0 0
90 c0 77 -3 96 -22 125 -13 19 -26 35 -30 35 -5 0 -8 -39 -8 -86 l0 -86 -30 4
-30 5 0 -84 0 -83 -121 -197 c-67 -109 -122 -199 -124 -200 -1 -2 -35 81 -75
183 -41 102 -77 187 -81 190 -4 2 -17 -26 -30 -63 l-22 -68 -41 123 -40 122
-73 0 -73 0 0 41 c0 32 -3 40 -15 35 -11 -4 -15 1 -15 17 0 16 -9 26 -29 33
l-28 11 -7 -75 c-3 -41 -6 -91 -6 -110 0 -23 -30 -103 -82 -221 -53 -120 -78
-186 -70 -189 20 -6 13 -20 -7 -15 -11 3 -21 13 -24 23 -6 22 -54 32 -61 13
-4 -8 -6 -46 -6 -84 0 -62 -2 -69 -20 -69 -19 0 -20 -7 -20 -117 l-1 -118 -22
30 c-23 31 -28 62 -43 287 -6 105 -7 108 -30 108 -21 0 -24 -5 -24 -42 0 -24
-5 -72 -11 -108 -5 -36 -16 -103 -23 -150 -11 -75 -20 -96 -69 -178 -57 -92
-57 -93 -57 -172 l0 -80 -35 0 -35 0 0 -82 0 -83 -262 6 c-145 4 -323 7 -395
8 l-133 1 0 68 0 68 42 -4 c35 -4 40 -2 35 13 -4 9 -7 21 -7 26 0 5 -27 9 -60
9 l-60 0 0 -92 0 -91 -137 6 c-75 4 -189 7 -255 7 l-118 0 0 90 0 91 -57 -3
c-53 -3 -58 -5 -61 -27 -4 -23 -2 -24 37 -18 l41 5 0 -69 0 -69 -330 0 -330 0
0 78 0 78 42 -4 c35 -4 40 -2 35 13 -4 9 -7 19 -7 21 0 2 -27 4 -60 4 l-60 0
0 -95 0 -95 -230 0 -230 0 0 95 0 96 -56 -3 c-49 -3 -58 -6 -66 -27 -8 -23 -7
-24 37 -19 l45 6 0 -74 0 -74 -118 0 c-66 0 -180 -3 -255 -7 l-137 -6 0 80 0
81 41 -5 c39 -6 41 -5 37 18 -3 22 -8 24 -60 27 l-58 3 0 -99 0 -99 -157 -6
c-87 -4 -182 -7 -210 -7 l-53 0 0 408 0 409 34 18 c31 17 46 45 46 86 0 5 -27
9 -60 9 -56 0 -60 1 -60 23 0 15 9 29 25 37 27 14 23 26 -10 32 -17 3 -21 15
-30 88 -10 82 -11 85 -37 88 -28 3 -36 16 -18 27 31 19 29 43 -6 84 -28 32
-42 41 -68 41 -29 0 -35 5 -56 50 -21 44 -22 54 -12 87 10 32 9 40 -3 49 -12
9 -15 35 -15 118 l0 106 -28 0 -29 0 -6 -106 c-3 -59 -7 -107 -9 -108 -2 -1
-55 1 -118 4 l-115 5 -3 118 c-1 64 -5 117 -8 117 -3 0 -20 -10 -36 -22 l-30
-21 5 -161 5 -161 -46 -197 -46 -198 -154 0 -154 0 4 98 c3 80 8 104 27 135
13 21 22 39 20 41 -2 2 -311 142 -686 311 -668 302 -683 310 -683 337 0 16 -6
28 -12 28 -9 0 -9 3 -3 8 6 4 20 22 32 41 l21 35 -29 42 c-23 34 -26 43 -14
48 21 8 19 50 -3 69 -25 23 -34 21 -62 -8 l-23 -24 -25 19 c-28 23 -62 26 -80
8 -16 -16 -15 -43 2 -58 13 -10 12 -16 -5 -43 -25 -42 -24 -85 3 -114 12 -13
16 -23 10 -23 -7 0 -12 -13 -12 -28 0 -28 -13 -34 -683 -338 l-683 -310 23
-49 c18 -40 23 -67 23 -138 l0 -88 -152 3 -152 3 -44 175 -44 175 2 181 1 181
-27 22 c-15 11 -31 21 -35 21 -5 0 -9 -54 -9 -120 l0 -120 -97 0 c-54 0 -108
-3 -120 -6 -21 -6 -23 -3 -23 37 0 24 -3 74 -7 112 -6 66 -6 67 -34 67 l-29 0
0 -109 c0 -83 -3 -110 -14 -114 -11 -4 -12 -14 -4 -49 8 -36 6 -51 -11 -90
-19 -44 -23 -48 -54 -48 -29 0 -41 -8 -70 -43 -35 -42 -35 -43 -16 -66 25 -31
24 -41 -5 -41 -27 0 -31 -10 -42 -109 -6 -58 -9 -64 -37 -73 l-29 -11 26 -16
c16 -9 26 -25 26 -38 0 -21 -4 -23 -61 -23 l-61 0 7 -32 c6 -30 48 -78 68 -78
4 0 7 -290 7 -645 l0 -645 2460 0 2460 0 0 160 c0 93 4 160 9 160 72 0 190
-133 237 -267 l19 -53 178 0 c160 0 178 2 184 18 27 80 90 189 137 236 115
114 234 110 348 -12 46 -49 94 -133 117 -204 l13 -38 176 0 177 0 28 70 c57
139 150 233 265 266 134 39 275 -45 359 -213 22 -43 42 -88 45 -101 6 -22 7
-22 212 -22 188 0 207 2 212 18 75 222 280 369 450 322 69 -20 145 -94 193
-191 22 -44 43 -95 47 -114 l6 -35 4514 0 4514 0 0 295 c0 288 0 295 -20 295
-15 0 -20 7 -20 25 0 16 -6 25 -15 25 -8 0 -15 9 -15 20 0 11 -7 20 -15 20 -9
0 -15 9 -15 25 0 18 -5 25 -20 25 -16 0 -20 7 -20 30 0 23 -4 30 -20 30 -15 0
-20 7 -20 25 0 16 -6 25 -15 25 -9 0 -15 9 -15 25 0 24 -3 25 -60 25 -57 0
-60 -1 -60 -25 0 -18 -5 -25 -20 -25 -15 0 -20 -7 -20 -25 0 -18 -5 -25 -20
-25 -16 0 -20 -7 -20 -30 0 -20 -5 -30 -15 -30 -9 0 -15 -9 -15 -25 0 -16 -6
-25 -15 -25 -8 0 -15 -9 -15 -20 0 -11 -7 -20 -15 -20 -13 0 -15 36 -15 265 0
258 -1 265 -20 265 -18 0 -20 7 -20 54 0 29 -3 67 -6 83 -5 26 -10 29 -31 25
-14 -3 -28 -13 -30 -23 -3 -11 -14 -19 -27 -19 -15 0 -17 3 -8 9 11 7 -3 48
-67 192 l-80 184 -7 111 -6 111 -29 -11 c-20 -7 -29 -17 -29 -33 0 -15 -5 -21
-14 -17 -11 4 -16 -4 -18 -33 l-3 -38 -70 -3 -71 -3 -40 -122 -41 -122 -22 68
c-13 37 -26 65 -30 63 -4 -3 -40 -88 -81 -190 -62 -158 -75 -183 -85 -168 -7
9 -62 99 -124 199 l-111 182 0 84 0 84 -30 -5 -30 -4 0 86 c0 47 -4 86 -9 86
-5 0 -18 -16 -30 -36 -17 -29 -21 -52 -21 -125 l0 -89 -94 0 -93 0 -115 -188
-115 -187 -556 -3 -557 -2 0 134 c0 74 4 137 9 140 5 3 -23 97 -61 209 l-71
202 -5 143 c-4 141 -5 142 -28 142 -26 0 -32 -21 -37 -125 -2 -59 -2 -60 -32
-60 l-30 0 -5 90 c-5 88 -6 90 -31 93 l-26 3 -6 -138 c-5 -115 -11 -153 -35
-228 -29 -89 -29 -90 -42 -60 -7 17 -12 48 -12 70 -1 22 -7 44 -14 50 -7 5
-24 49 -37 98 -20 70 -22 89 -11 95 10 5 4 21 -25 67 l-39 60 -6 185 c-9 262
-12 280 -42 280 -21 0 -24 -5 -24 -36 0 -20 -5 -125 -11 -233 l-11 -196 -35
-54 c-26 -40 -33 -59 -26 -71 13 -21 -21 -197 -43 -222 -12 -13 -14 -22 -7
-29 7 -7 2 -32 -17 -82 -33 -86 -56 -99 -66 -38 -5 34 -10 41 -29 41 -19 0
-23 -7 -29 -46 -10 -74 -7 -244 4 -244 6 0 10 -4 10 -10 0 -7 -147 -10 -420
-10 -273 0 -420 3 -420 10 0 6 5 10 10 10 11 0 13 134 4 229 -6 55 -9 61 -30
61 -18 0 -23 -7 -29 -41 -10 -59 -32 -47 -65 36 -20 50 -25 74 -18 83 8 9 6
18 -5 30 -21 23 -62 215 -47 220 16 6 12 19 -24 75 l-35 52 -10 190 c-6 105
-11 210 -11 233 0 38 -2 42 -24 42 -19 0 -26 -7 -30 -27z"/>
<path d="M678 881 c-127 -8 -138 -16 -138 -106 0 -53 -3 -67 -17 -73 -38 -15
-103 -65 -108 -83 -7 -21 -31 -26 -37 -7 -4 12 -40 14 -166 10 -90 -3 -122
-26 -122 -91 0 -36 -4 -43 -45 -71 -40 -28 -45 -35 -45 -70 0 -41 13 -57 109
-140 22 -19 43 -43 46 -52 4 -10 22 -19 47 -23 l40 -7 -7 -84 -7 -84 36 0 36
0 0 75 0 75 50 0 c40 0 52 4 56 18 3 9 10 25 15 34 5 10 9 23 9 28 0 6 11 21
25 33 19 17 26 37 33 92 5 39 6 80 1 92 -17 45 33 34 67 -15 13 -19 12 -22
-13 -34 -22 -10 -31 -25 -40 -63 -16 -65 -9 -146 14 -163 10 -7 23 -27 29 -45
9 -27 16 -32 48 -35 l38 -3 -4 -45 c-3 -42 -2 -44 25 -44 27 0 27 0 21 55 -6
48 -4 55 10 55 15 0 17 -7 11 -55 l-7 -55 53 0 54 0 -3 90 c-4 85 -3 91 23
122 20 24 25 39 21 60 -5 27 -4 28 34 28 29 0 40 4 40 15 0 8 4 23 9 33 6 9
12 28 15 42 3 14 21 35 41 48 29 18 35 28 35 57 0 18 4 36 8 39 10 6 8 118 -2
135 -5 7 -5 27 -2 44 5 25 1 36 -14 50 -12 10 -18 22 -15 27 10 16 -14 50 -35
50 -10 0 -22 5 -25 10 -3 6 -15 10 -26 10 -10 0 -19 7 -19 15 0 16 -11 16
-202 6z"/>
<path d="M1180 610 c0 -5 -14 -11 -31 -15 -17 -4 -33 -14 -36 -23 -2 -10 -10
-27 -16 -40 -6 -12 -10 -63 -10 -113 0 -88 1 -93 26 -111 15 -11 27 -25 27
-32 0 -7 6 -24 13 -40 11 -25 16 -27 56 -24 l43 3 -7 -107 -7 -108 42 0 c39 0
42 2 36 23 -3 12 -9 63 -12 113 l-7 92 33 7 c20 4 34 15 37 26 3 10 8 19 12
19 4 0 35 25 69 56 73 67 78 91 29 128 -19 15 -39 26 -45 26 -7 0 -12 18 -12
45 0 72 -18 83 -139 83 -56 0 -101 -3 -101 -8z"/>
</g>
</svg>
